<?xml version="1.0" encoding="UTF-8" standalone="no"?>
<!DOCTYPE svg PUBLIC "-//W3C//DTD SVG 1.1//EN"
 "http://www.w3.org/Graphics/SVG/1.1/DTD/svg11.dtd">
<!-- Generated by graphviz version 5.0.0 (20220707.1540)
 -->
<!-- Title: dependency&#45;cruiser output Pages: 1 -->
<svg width="524pt" height="308pt"
 viewBox="0.00 0.00 524.00 308.00" xmlns="http://www.w3.org/2000/svg" xmlns:xlink="http://www.w3.org/1999/xlink">
<g id="graph0" class="graph" transform="scale(1 1) rotate(0) translate(4 304)">
<title>dependency&#45;cruiser output</title>
<polygon fill="white" stroke="transparent" points="-4,4 -4,-304 520,-304 520,4 -4,4"/>
<g id="clust1" class="cluster">
<title>cluster_src</title>
<path fill="#ffffff" stroke="black" stroke-width="2" d="M20,-8C20,-8 496,-8 496,-8 502,-8 508,-14 508,-20 508,-20 508,-280 508,-280 508,-286 502,-292 496,-292 496,-292 20,-292 20,-292 14,-292 8,-286 8,-280 8,-280 8,-20 8,-20 8,-14 14,-8 20,-8"/>
<text text-anchor="middle" x="258" y="-280.8" font-family="Helvetica,sans-Serif" font-weight="bold" font-size="9.00">src</text>
</g>
<g id="clust2" class="cluster">
<title>cluster_src/modules</title>
<path fill="#ffffff" stroke="black" stroke-width="2" d="M28,-16C28,-16 488,-16 488,-16 494,-16 500,-22 500,-28 500,-28 500,-254 500,-254 500,-260 494,-266 488,-266 488,-266 28,-266 28,-266 22,-266 16,-260 16,-254 16,-254 16,-28 16,-28 16,-22 22,-16 28,-16"/>
<text text-anchor="middle" x="258" y="-254.8" font-family="Helvetica,sans-Serif" font-weight="bold" font-size="9.00">modules</text>
</g>
<!-- src/modules/data -->
<g id="node1" class="node">
<title>src/modules/data</title>
<g id="a_node1"><a xlink:href="src/modules/data" xlink:title="data">
<path fill="#ffffcc" stroke="black" d="M217,-91C217,-91 175,-91 175,-91 172,-91 169,-88 169,-85 169,-85 169,-79 169,-79 169,-76 172,-73 175,-73 175,-73 217,-73 217,-73 220,-73 223,-76 223,-79 223,-79 223,-85 223,-85 223,-88 220,-91 217,-91"/>
<text text-anchor="start" x="186.5" y="-79.8" font-family="Helvetica,sans-Serif" font-size="9.00">data</text>
</a>
</g>
</g>
<!-- src/modules/transform -->
<g id="node2" class="node">
<title>src/modules/transform</title>
<g id="a_node2"><a xlink:href="src/modules/transform" xlink:title="transform">
<path fill="#ffffcc" stroke="black" d="M285,-98C285,-98 242,-98 242,-98 239,-98 236,-95 236,-92 236,-92 236,-86 236,-86 236,-83 239,-80 242,-80 242,-80 285,-80 285,-80 288,-80 291,-83 291,-86 291,-86 291,-92 291,-92 291,-95 288,-98 285,-98"/>
<text text-anchor="start" x="244" y="-86.8" font-family="Helvetica,sans-Serif" font-size="9.00">transform</text>
</a>
</g>
</g>
<!-- src/modules/data&#45;&gt;src/modules/transform -->
<g id="edge1" class="edge">
<title>src/modules/data&#45;&gt;src/modules/transform</title>
<path fill="none" stroke="#222222" d="M223.26,-80.39C223.39,-80.4 223.52,-80.41 223.65,-80.42"/>
<polygon fill="#222222" stroke="#222222" points="229.61,-83.17 235.8,-81.72 230.06,-78.99 229.61,-83.17"/>
<polyline fill="none" stroke="#222222" points="229.84,-81.08 226.85,-80.76 "/>
<ellipse fill="none" stroke="#222222" cx="224.47" cy="-80.51" rx="2.4" ry="2.4"/>
</g>
<!-- src/modules/utils -->
<g id="node3" class="node">
<title>src/modules/utils</title>
<g id="a_node3"><a xlink:href="src/modules/utils" xlink:title="utils">
<path fill="#ffffcc" stroke="black" d="M486,-120C486,-120 444,-120 444,-120 441,-120 438,-117 438,-114 438,-114 438,-108 438,-108 438,-105 441,-102 444,-102 444,-102 486,-102 486,-102 489,-102 492,-105 492,-108 492,-108 492,-114 492,-114 492,-117 489,-120 486,-120"/>
<text text-anchor="start" x="456.5" y="-108.8" font-family="Helvetica,sans-Serif" font-size="9.00">utils</text>
</a>
</g>
</g>
<!-- src/modules/data&#45;&gt;src/modules/utils -->
<g id="edge2" class="edge">
<title>src/modules/data&#45;&gt;src/modules/utils</title>
<path fill="none" stroke="#222222" d="M206.05,-72.95C213.81,-68.34 225.37,-63.85 236,-62 319.09,-47.54 345.98,-49.52 425,-79 435.65,-82.98 446.3,-90.36 453.77,-97.22"/>
<polygon fill="#222222" stroke="#222222" points="452.66,-99.09 458.39,-101.84 455.63,-96.11 452.66,-99.09"/>
</g>
<!-- src/modules/transform&#45;&gt;src/modules/data -->
<g id="edge31" class="edge">
<title>src/modules/transform&#45;&gt;src/modules/data</title>
<path fill="none" stroke="#222222" d="M235.8,-90.58C235.67,-90.57 235.54,-90.56 235.41,-90.54"/>
<polygon fill="#222222" stroke="#222222" points="229.46,-87.79 223.26,-89.23 229,-91.96 229.46,-87.79"/>
<polyline fill="none" stroke="#222222" points="229.23,-89.87 232.21,-90.2 "/>
<ellipse fill="none" stroke="#222222" cx="234.6" cy="-90.46" rx="2.4" ry="2.4"/>
</g>
<!-- src/modules/transform&#45;&gt;src/modules/utils -->
<g id="edge32" class="edge">
<title>src/modules/transform&#45;&gt;src/modules/utils</title>
<path fill="none" stroke="#222222" d="M291.24,-83.29C323.37,-80.4 378.72,-80.33 425,-90 433.43,-91.76 442.43,-95.12 449.66,-98.81"/>
<polygon fill="#222222" stroke="#222222" points="449.01,-100.85 455.26,-101.96 451.06,-97.19 449.01,-100.85"/>
</g>
<!-- src/modules/os -->
<g id="node6" class="node">
<title>src/modules/os</title>
<g id="a_node6"><a xlink:href="src/modules/os" xlink:title="os">
<path fill="#ffffcc" stroke="black" d="M419,-120C419,-120 377,-120 377,-120 374,-120 371,-117 371,-114 371,-114 371,-108 371,-108 371,-105 374,-102 377,-102 377,-102 419,-102 419,-102 422,-102 425,-105 425,-108 425,-108 425,-114 425,-114 425,-117 422,-120 419,-120"/>
<text text-anchor="start" x="393" y="-108.8" font-family="Helvetica,sans-Serif" font-size="9.00">os</text>
</a>
</g>
</g>
<!-- src/modules/transform&#45;&gt;src/modules/os -->
<g id="edge33" class="edge">
<title>src/modules/transform&#45;&gt;src/modules/os</title>
<path fill="none" stroke="#222222" d="M291.31,-93.45C312.46,-96.96 342.05,-101.88 364.54,-105.61"/>
<polygon fill="#222222" stroke="#222222" points="364.42,-107.72 370.68,-106.63 365.1,-103.58 364.42,-107.72"/>
</g>
<!-- src/modules/storage -->
<g id="node9" class="node">
<title>src/modules/storage</title>
<g id="a_node9"><a xlink:href="src/modules/storage" xlink:title="storage">
<path fill="#ffffcc" stroke="black" d="M352,-142C352,-142 310,-142 310,-142 307,-142 304,-139 304,-136 304,-136 304,-130 304,-130 304,-127 307,-124 310,-124 310,-124 352,-124 352,-124 355,-124 358,-127 358,-130 358,-130 358,-136 358,-136 358,-139 355,-142 352,-142"/>
<text text-anchor="start" x="315.5" y="-130.8" font-family="Helvetica,sans-Serif" font-size="9.00">storage</text>
</a>
</g>
</g>
<!-- src/modules/transform&#45;&gt;src/modules/storage -->
<g id="edge34" class="edge">
<title>src/modules/transform&#45;&gt;src/modules/storage</title>
<path fill="none" stroke="#222222" d="M284.15,-98.04C294.58,-104.48 307.13,-113.06 316.46,-120.18"/>
<polygon fill="#222222" stroke="#222222" points="315.27,-121.91 321.28,-123.97 317.86,-118.61 315.27,-121.91"/>
</g>
<!-- src/modules/utils&#45;&gt;src/modules/data -->
<g id="edge38" class="edge">
<title>src/modules/utils&#45;&gt;src/modules/data</title>
<path fill="none" stroke="#222222" d="M445.52,-101.86C439.33,-97.89 432.17,-93.67 425,-91 345.98,-61.52 319.09,-59.54 236,-74 233.74,-74.39 231.44,-74.91 229.14,-75.49"/>
<polygon fill="#222222" stroke="#222222" points="228.32,-73.54 223.1,-77.17 229.44,-77.59 228.32,-73.54"/>
</g>
<!-- src/modules/utils&#45;&gt;src/modules/transform -->
<g id="edge36" class="edge">
<title>src/modules/utils&#45;&gt;src/modules/transform</title>
<path fill="none" stroke="#222222" d="M437.92,-105.57C433.67,-104.19 429.26,-102.89 425,-102 381.62,-92.94 330.25,-92.43 297.53,-91.91"/>
<polygon fill="#222222" stroke="#222222" points="297.27,-89.81 291.24,-91.8 297.2,-94.01 297.27,-89.81"/>
</g>
<!-- src/modules/utils&#45;&gt;src/modules/os -->
<g id="edge37" class="edge">
<title>src/modules/utils&#45;&gt;src/modules/os</title>
<path fill="none" stroke="#222222" d="M437.93,-115.42C435.68,-115.48 433.38,-115.5 431.09,-115.5"/>
<polygon fill="#222222" stroke="#222222" points="431.09,-113.4 425.06,-115.42 431.04,-117.6 431.09,-113.4"/>
</g>
<!-- src/modules/utils&#45;&gt;src/modules/storage -->
<g id="edge35" class="edge">
<title>src/modules/utils&#45;&gt;src/modules/storage</title>
<path fill="none" stroke="#222222" d="M454.94,-120.15C447.18,-124.87 435.62,-129.61 425,-132 405.3,-136.43 382.73,-138.2 364.76,-138.17"/>
<polygon fill="#222222" stroke="#222222" points="364.39,-136.06 358.36,-138.07 364.33,-140.26 364.39,-136.06"/>
</g>
<!-- src/modules/globals -->
<g id="node4" class="node">
<title>src/modules/globals</title>
<g id="a_node4"><a xlink:href="src/modules/globals" xlink:title="globals">
<path fill="#ffffcc" stroke="black" d="M72,-137C72,-137 30,-137 30,-137 27,-137 24,-134 24,-131 24,-131 24,-125 24,-125 24,-122 27,-119 30,-119 30,-119 72,-119 72,-119 75,-119 78,-122 78,-125 78,-125 78,-131 78,-131 78,-134 75,-137 72,-137"/>
<text text-anchor="start" x="35.5" y="-125.8" font-family="Helvetica,sans-Serif" font-size="9.00">globals</text>
</a>
</g>
</g>
<!-- src/modules/globals&#45;&gt;src/modules/data -->
<g id="edge4" class="edge">
<title>src/modules/globals&#45;&gt;src/modules/data</title>
<path fill="none" stroke="#222222" d="M62.14,-118.74C69.58,-112.46 80.24,-104.51 91,-100 113.92,-90.39 141.74,-85.91 162.84,-83.82"/>
<polygon fill="#222222" stroke="#222222" points="163.09,-85.91 168.88,-83.27 162.71,-81.73 163.09,-85.91"/>
</g>
<!-- src/modules/globals&#45;&gt;src/modules/transform -->
<g id="edge10" class="edge">
<title>src/modules/globals&#45;&gt;src/modules/transform</title>
<path fill="none" stroke="#222222" d="M74.85,-118.87C80.09,-117.03 85.68,-115.28 91,-114 148.51,-100.15 164.64,-106.65 223,-97 225.2,-96.64 227.47,-96.24 229.74,-95.82"/>
<polygon fill="#222222" stroke="#222222" points="230.27,-97.86 235.78,-94.68 229.49,-93.73 230.27,-97.86"/>
</g>
<!-- src/modules/globals&#45;&gt;src/modules/utils -->
<g id="edge3" class="edge">
<title>src/modules/globals&#45;&gt;src/modules/utils</title>
<path fill="none" stroke="#222222" d="M53.67,-118.81C57.27,-101.81 67.42,-65.5 91,-47 128.17,-17.84 147.75,-25 195,-25 195,-25 195,-25 332,-25 373.68,-25 390.77,-13.23 425,-37 445.18,-51.02 455.72,-78.84 460.55,-96.09"/>
<polygon fill="#222222" stroke="#222222" points="458.53,-96.65 462.08,-101.92 462.59,-95.58 458.53,-96.65"/>
</g>
<!-- src/modules/integrations -->
<g id="node5" class="node">
<title>src/modules/integrations</title>
<g id="a_node5"><a xlink:href="src/modules/integrations" xlink:title="integrations">
<path fill="#ffffcc" stroke="black" d="M150,-173C150,-173 97,-173 97,-173 94,-173 91,-170 91,-167 91,-167 91,-161 91,-161 91,-158 94,-155 97,-155 97,-155 150,-155 150,-155 153,-155 156,-158 156,-161 156,-161 156,-167 156,-167 156,-170 153,-173 150,-173"/>
<text text-anchor="start" x="99" y="-161.8" font-family="Helvetica,sans-Serif" font-size="9.00">integrations</text>
</a>
</g>
</g>
<!-- src/modules/globals&#45;&gt;src/modules/integrations -->
<g id="edge5" class="edge">
<title>src/modules/globals&#45;&gt;src/modules/integrations</title>
<path fill="none" stroke="#222222" d="M69.79,-137.08C78.66,-141.61 89.49,-147.15 99.03,-152.02"/>
<polygon fill="#222222" stroke="#222222" points="98.17,-153.93 104.47,-154.79 100.08,-150.19 98.17,-153.93"/>
</g>
<!-- src/modules/globals&#45;&gt;src/modules/os -->
<g id="edge6" class="edge">
<title>src/modules/globals&#45;&gt;src/modules/os</title>
<path fill="none" stroke="#222222" d="M78.01,-125.89C82.34,-125.57 86.8,-125.26 91,-125 190.67,-118.89 308.75,-114.21 364.61,-112.15"/>
<polygon fill="#222222" stroke="#222222" points="364.87,-114.24 370.79,-111.92 364.72,-110.05 364.87,-114.24"/>
</g>
<!-- src/modules/play -->
<g id="node7" class="node">
<title>src/modules/play</title>
<g id="a_node7"><a xlink:href="src/modules/play" xlink:title="play">
<path fill="#ffffcc" stroke="black" d="M217,-212C217,-212 175,-212 175,-212 172,-212 169,-209 169,-206 169,-206 169,-200 169,-200 169,-197 172,-194 175,-194 175,-194 217,-194 217,-194 220,-194 223,-197 223,-200 223,-200 223,-206 223,-206 223,-209 220,-212 217,-212"/>
<text text-anchor="start" x="187" y="-200.8" font-family="Helvetica,sans-Serif" font-size="9.00">play</text>
</a>
</g>
</g>
<!-- src/modules/globals&#45;&gt;src/modules/play -->
<g id="edge7" class="edge">
<title>src/modules/globals&#45;&gt;src/modules/play</title>
<path fill="none" stroke="#222222" d="M56.42,-137.11C62.54,-148.71 74.7,-168.5 91,-179 110.02,-191.25 134.55,-197.28 155.02,-200.23"/>
<polygon fill="#222222" stroke="#222222" points="162.53,-203.23 168.74,-201.85 163.02,-199.06 162.53,-203.23"/>
<polyline fill="none" stroke="#222222" points="162.78,-201.14 159.8,-200.79 "/>
<ellipse fill="none" stroke="#222222" cx="157.41" cy="-200.51" rx="2.4" ry="2.4"/>
</g>
<!-- src/modules/sol -->
<g id="node8" class="node">
<title>src/modules/sol</title>
<g id="a_node8"><a xlink:href="src/modules/sol" xlink:title="sol">
<path fill="#ccffcc" stroke="black" d="M284.5,-240C284.5,-240 242.5,-240 242.5,-240 239.5,-240 236.5,-237 236.5,-234 236.5,-234 236.5,-228 236.5,-228 236.5,-225 239.5,-222 242.5,-222 242.5,-222 284.5,-222 284.5,-222 287.5,-222 290.5,-225 290.5,-228 290.5,-228 290.5,-234 290.5,-234 290.5,-237 287.5,-240 284.5,-240"/>
<text text-anchor="start" x="257" y="-228.8" font-family="Helvetica,sans-Serif" font-size="9.00">sol</text>
</a>
</g>
</g>
<!-- src/modules/globals&#45;&gt;src/modules/sol -->
<g id="edge8" class="edge">
<title>src/modules/globals&#45;&gt;src/modules/sol</title>
<path fill="none" stroke="#222222" d="M57.24,-137.18C63.39,-150.02 74.86,-172.67 91,-187 119.41,-212.23 131.98,-213.45 169,-222 186.26,-225.98 205.78,-227.12 222.5,-227.57"/>
<polygon fill="#222222" stroke="#222222" points="230.31,-229.83 236.36,-227.85 230.4,-225.63 230.31,-229.83"/>
<polyline fill="none" stroke="#222222" points="230.36,-227.73 227.36,-227.67 "/>
<ellipse fill="none" stroke="#222222" cx="224.96" cy="-227.62" rx="2.4" ry="2.4"/>
</g>
<!-- src/modules/globals&#45;&gt;src/modules/storage -->
<g id="edge9" class="edge">
<title>src/modules/globals&#45;&gt;src/modules/storage</title>
<path fill="none" stroke="#222222" d="M78.15,-128.47C129.17,-129.39 241.84,-131.41 297.53,-132.42"/>
<polygon fill="#222222" stroke="#222222" points="297.68,-134.52 303.71,-132.53 297.75,-130.32 297.68,-134.52"/>
</g>
<!-- src/modules/web -->
<g id="node10" class="node">
<title>src/modules/web</title>
<g id="a_node10"><a xlink:href="src/modules/web" xlink:title="web">
<path fill="#ccffcc" stroke="black" d="M144.5,-71C144.5,-71 102.5,-71 102.5,-71 99.5,-71 96.5,-68 96.5,-65 96.5,-65 96.5,-59 96.5,-59 96.5,-56 99.5,-53 102.5,-53 102.5,-53 144.5,-53 144.5,-53 147.5,-53 150.5,-56 150.5,-59 150.5,-59 150.5,-65 150.5,-65 150.5,-68 147.5,-71 144.5,-71"/>
<text text-anchor="start" x="114.5" y="-59.8" font-family="Helvetica,sans-Serif" font-size="9.00">web</text>
</a>
</g>
</g>
<!-- src/modules/globals&#45;&gt;src/modules/web -->
<g id="edge11" class="edge">
<title>src/modules/globals&#45;&gt;src/modules/web</title>
<path fill="none" stroke="#222222" d="M59.19,-118.66C66.62,-109.33 78.8,-94.86 91,-84 94.64,-80.76 98.77,-77.57 102.82,-74.67"/>
<polygon fill="#222222" stroke="#222222" points="104.12,-76.33 107.85,-71.18 101.73,-72.88 104.12,-76.33"/>
</g>
<!-- src/modules/integrations&#45;&gt;src/modules/data -->
<g id="edge12" class="edge">
<title>src/modules/integrations&#45;&gt;src/modules/data</title>
<path fill="none" stroke="#222222" d="M132.31,-154.91C144.6,-140.63 168.5,-112.82 182.98,-95.98"/>
<polygon fill="#222222" stroke="#222222" points="184.83,-97.05 187.15,-91.13 181.65,-94.31 184.83,-97.05"/>
</g>
<!-- src/modules/integrations&#45;&gt;src/modules/utils -->
<g id="edge13" class="edge">
<title>src/modules/integrations&#45;&gt;src/modules/utils</title>
<path fill="none" stroke="#222222" d="M156.45,-172.62C160.65,-173.54 164.91,-174.37 169,-175 210.15,-181.35 220.86,-181 262.5,-181 262.5,-181 262.5,-181 332,-181 379.95,-181 427.48,-144.5 450.19,-124.22"/>
<polygon fill="#222222" stroke="#222222" points="451.63,-125.74 454.65,-120.15 448.8,-122.64 451.63,-125.74"/>
</g>
<!-- src/modules/integrations&#45;&gt;src/modules/os -->
<g id="edge15" class="edge">
<title>src/modules/integrations&#45;&gt;src/modules/os</title>
<path fill="none" stroke="#222222" d="M156.01,-168.52C202.49,-173.75 291.15,-178.17 358,-148 369.27,-142.91 379.32,-133.18 386.4,-124.97"/>
<polygon fill="#222222" stroke="#222222" points="388.21,-126.08 390.4,-120.12 384.97,-123.41 388.21,-126.08"/>
</g>
<!-- src/modules/integrations&#45;&gt;src/modules/sol -->
<g id="edge16" class="edge">
<title>src/modules/integrations&#45;&gt;src/modules/sol</title>
<path fill="none" stroke="#222222" d="M129.12,-173.05C135.99,-185.46 150.13,-207.45 169,-218 187.51,-228.35 211.19,-231.56 230.09,-232.2"/>
<polygon fill="#222222" stroke="#222222" points="230.26,-234.3 236.3,-232.33 230.34,-230.1 230.26,-234.3"/>
</g>
<!-- src/modules/integrations&#45;&gt;src/modules/storage -->
<g id="edge14" class="edge">
<title>src/modules/integrations&#45;&gt;src/modules/storage</title>
<path fill="none" stroke="#222222" d="M156.3,-161.19C189.94,-157.93 244.49,-151.86 291,-143 293.19,-142.58 295.44,-142.11 297.7,-141.61"/>
<polygon fill="#222222" stroke="#222222" points="298.3,-143.63 303.67,-140.23 297.35,-139.54 298.3,-143.63"/>
</g>
<!-- src/modules/os&#45;&gt;src/modules/data -->
<g id="edge18" class="edge">
<title>src/modules/os&#45;&gt;src/modules/data</title>
<path fill="none" stroke="#222222" d="M378.99,-101.98C372.47,-98.9 364.99,-95.59 358,-93 306.53,-73.96 290.6,-68.46 236,-74 233.81,-74.22 231.56,-74.51 229.3,-74.85"/>
<polygon fill="#222222" stroke="#222222" points="228.89,-72.79 223.32,-75.85 229.59,-76.93 228.89,-72.79"/>
</g>
<!-- src/modules/os&#45;&gt;src/modules/utils -->
<g id="edge17" class="edge">
<title>src/modules/os&#45;&gt;src/modules/utils</title>
<path fill="none" stroke="#222222" d="M425.06,-106.58C427.32,-106.52 429.61,-106.5 431.9,-106.5"/>
<polygon fill="#222222" stroke="#222222" points="431.9,-108.6 437.93,-106.58 431.96,-104.4 431.9,-108.6"/>
</g>
<!-- src/modules/os&#45;&gt;src/modules/storage -->
<g id="edge19" class="edge">
<title>src/modules/os&#45;&gt;src/modules/storage</title>
<path fill="none" stroke="#222222" d="M381.78,-120.03C376.37,-122.29 370.06,-124.63 363.79,-126.74"/>
<polygon fill="#222222" stroke="#222222" points="363.12,-124.75 358.06,-128.6 364.42,-128.74 363.12,-124.75"/>
</g>
<!-- src/modules/play&#45;&gt;src/modules/transform -->
<g id="edge23" class="edge">
<title>src/modules/play&#45;&gt;src/modules/transform</title>
<path fill="none" stroke="#222222" d="M202.36,-193.67C213.79,-173.78 240.61,-127.1 254.24,-103.38"/>
<polygon fill="#222222" stroke="#222222" points="256.08,-104.39 257.25,-98.14 252.44,-102.3 256.08,-104.39"/>
</g>
<!-- src/modules/play&#45;&gt;src/modules/utils -->
<g id="edge22" class="edge">
<title>src/modules/play&#45;&gt;src/modules/utils</title>
<path fill="none" stroke="#222222" d="M223.16,-208.49C268.42,-216.46 362.49,-226.16 425,-185 445.52,-171.49 455.96,-143.5 460.67,-126.09"/>
<polygon fill="#222222" stroke="#222222" points="462.72,-126.53 462.16,-120.19 458.65,-125.5 462.72,-126.53"/>
</g>
<!-- src/modules/play&#45;&gt;src/modules/sol -->
<g id="edge20" class="edge">
<title>src/modules/play&#45;&gt;src/modules/sol</title>
<path fill="none" stroke="#222222" d="M218.09,-212.01C221.29,-213.38 224.67,-214.83 228.07,-216.28"/>
<polygon fill="#222222" stroke="#222222" points="234.66,-221.38 241,-221.81 236.31,-217.52 234.66,-221.38"/>
<polyline fill="none" stroke="#222222" points="235.49,-219.45 232.73,-218.27 "/>
<ellipse fill="none" stroke="#222222" cx="230.52" cy="-217.33" rx="2.4" ry="2.4"/>
</g>
<!-- src/modules/play&#45;&gt;src/modules/storage -->
<g id="edge21" class="edge">
<title>src/modules/play&#45;&gt;src/modules/storage</title>
<path fill="none" stroke="#222222" d="M217.09,-193.86C236.32,-184.94 266.01,-170.76 291,-157 297.4,-153.48 304.23,-149.39 310.35,-145.6"/>
<polygon fill="#222222" stroke="#222222" points="311.78,-147.19 315.75,-142.23 309.55,-143.63 311.78,-147.19"/>
</g>
<!-- src/modules/sol&#45;&gt;src/modules/utils -->
<g id="edge25" class="edge">
<title>src/modules/sol&#45;&gt;src/modules/utils</title>
<path fill="none" stroke="#222222" d="M290.59,-235.71C325.09,-240.4 386.08,-243.12 425,-213 452.29,-191.88 460.49,-149.22 462.95,-126.34"/>
<polygon fill="#222222" stroke="#222222" points="465.06,-126.34 463.52,-120.18 460.88,-125.96 465.06,-126.34"/>
</g>
<!-- src/modules/sol&#45;&gt;src/modules/globals -->
<g id="edge24" class="edge">
<title>src/modules/sol&#45;&gt;src/modules/globals</title>
<path fill="none" stroke="#222222" d="M236.36,-237.84C217.41,-239.54 191.31,-239.15 169,-234 131.98,-225.45 119.41,-224.23 91,-199 76.23,-185.89 65.38,-165.82 58.92,-150.24"/>
<polygon fill="#222222" stroke="#222222" points="58.13,-141.97 54.1,-137.06 54.19,-143.41 58.13,-141.97"/>
<polyline fill="none" stroke="#222222" points="56.16,-142.69 57.19,-145.51 "/>
<ellipse fill="none" stroke="#222222" cx="58.02" cy="-147.76" rx="2.4" ry="2.4"/>
</g>
<!-- src/modules/sol&#45;&gt;src/modules/storage -->
<g id="edge26" class="edge">
<title>src/modules/sol&#45;&gt;src/modules/storage</title>
<path fill="none" stroke="#222222" d="M272.79,-221.79C278.23,-215.56 285.36,-207.03 291,-199 302.92,-182.04 314.77,-161.29 322.23,-147.63"/>
<polygon fill="#222222" stroke="#222222" points="324.13,-148.53 325.14,-142.25 320.44,-146.53 324.13,-148.53"/>
</g>
<!-- src/modules/storage&#45;&gt;src/modules/data -->
<g id="edge29" class="edge">
<title>src/modules/storage&#45;&gt;src/modules/data</title>
<path fill="none" stroke="#222222" d="M303.93,-126.57C284.76,-121.46 258.28,-113.59 236,-104 229.55,-101.22 222.79,-97.67 216.75,-94.23"/>
<polygon fill="#222222" stroke="#222222" points="217.68,-92.33 211.44,-91.13 215.56,-95.96 217.68,-92.33"/>
</g>
<!-- src/modules/storage&#45;&gt;src/modules/transform -->
<g id="edge28" class="edge">
<title>src/modules/storage&#45;&gt;src/modules/transform</title>
<path fill="none" stroke="#222222" d="M310.31,-123.94C299.93,-117.52 287.45,-109 278.15,-101.9"/>
<polygon fill="#222222" stroke="#222222" points="279.35,-100.18 273.33,-98.13 276.76,-103.48 279.35,-100.18"/>
</g>
<!-- src/modules/storage&#45;&gt;src/modules/utils -->
<g id="edge27" class="edge">
<title>src/modules/storage&#45;&gt;src/modules/utils</title>
<path fill="none" stroke="#222222" d="M358.36,-128.03C377.14,-126.6 402.88,-124.97 425,-120 427.26,-119.49 429.55,-118.88 431.85,-118.21"/>
<polygon fill="#222222" stroke="#222222" points="432.79,-120.11 437.89,-116.31 431.54,-116.1 432.79,-120.11"/>
</g>
<!-- src/modules/storage&#45;&gt;src/modules/os -->
<g id="edge30" class="edge">
<title>src/modules/storage&#45;&gt;src/modules/os</title>
<path fill="none" stroke="#222222" d="M347.4,-123.89C352.64,-121.71 358.71,-119.46 364.76,-117.41"/>
<polygon fill="#222222" stroke="#222222" points="365.72,-119.31 370.78,-115.45 364.42,-115.31 365.72,-119.31"/>
</g>
<!-- src/modules/web&#45;&gt;src/modules/data -->
<g id="edge40" class="edge">
<title>src/modules/web&#45;&gt;src/modules/data</title>
<path fill="none" stroke="#222222" d="M150.75,-69.45C154.75,-70.58 158.91,-71.76 163.02,-72.93"/>
<polygon fill="#222222" stroke="#222222" points="162.62,-75 168.96,-74.61 163.76,-70.96 162.62,-75"/>
</g>
<!-- src/modules/web&#45;&gt;src/modules/transform -->
<g id="edge41" class="edge">
<title>src/modules/web&#45;&gt;src/modules/transform</title>
<path fill="none" stroke="#222222" d="M150.54,-60.14C170.7,-59.46 199.14,-60.15 223,-67 230.43,-69.13 237.98,-72.88 244.47,-76.68"/>
<polygon fill="#222222" stroke="#222222" points="243.43,-78.5 249.64,-79.85 245.63,-74.92 243.43,-78.5"/>
</g>
<!-- src/modules/web&#45;&gt;src/modules/utils -->
<g id="edge39" class="edge">
<title>src/modules/web&#45;&gt;src/modules/utils</title>
<path fill="none" stroke="#222222" d="M150.74,-54.97C178.34,-48.21 223.15,-39 262.5,-39 262.5,-39 262.5,-39 332,-39 374.8,-39 388.97,-40.89 425,-64 437.92,-72.29 448.7,-86.23 455.63,-96.79"/>
<polygon fill="#222222" stroke="#222222" points="453.91,-98 458.89,-101.95 457.46,-95.75 453.91,-98"/>
</g>
</g>
</svg>
